<svg fill="currentColor" width="256px" height="256px" viewBox="0 0 32.00 32.00" version="1.1"
    xmlns="http://www.w3.org/2000/svg" stroke="currentColor" stroke-width="0.8"
    transform="matrix(1, 0, 0, 1, 0, 0)">
    <g id="SVGRepo_bgCarrier" stroke-width="0"></g>
    <g id="SVGRepo_tracerCarrier" stroke-linecap="round" stroke-linejoin="round"></g>
    <g id="SVGRepo_iconCarrier">
        <title>caret-right</title>
        <path
            d="M21.531 15.47l-10.001-10c-0.136-0.136-0.323-0.22-0.531-0.22-0.414 0-0.75 0.336-0.75 0.75 0 0 0 0 0 0.001v-0 20c0 0.311 0.189 0.577 0.458 0.692l0.005 0.002c0.085 0.035 0.184 0.056 0.287 0.057h0c0.207 0 0.394-0.084 0.53-0.219l10.001-10.001c0.135-0.136 0.218-0.323 0.218-0.53s-0.083-0.394-0.218-0.53l0 0zM11.75 24.189v-16.379l8.189 8.189z">
        </path>
    </g>
</svg>